<?xml version="1.0" encoding="utf-8"?>
<!-- Generator: Adobe Illustrator 27.4.1, SVG Export Plug-In . SVG Version: 6.00 Build 0)  -->
<svg version="1.1" id="Layer_1" xmlns="http://www.w3.org/2000/svg" xmlns:xlink="http://www.w3.org/1999/xlink" x="0px" y="0px"
	 viewBox="0 0 400 400" style="enable-background:new 0 0 400 400;" xml:space="preserve">
<style type="text/css">
	.st0{fill:#606060;}
</style>
<polygon class="st0" points="368.4,243.4 331.1,162.5 302.4,162.5 302.4,176.4 322.2,176.4 353,243.4 47.6,243.4 78.2,176.4 
	108,176.4 108,162.5 69.3,162.5 32.3,243.4 29.1,243.4 29.1,361.3 43.1,361.3 43.1,257.3 356.9,257.3 356.9,361.3 370.9,361.3 
	370.9,243.4 "/>
<path class="st0" d="M312.1,127.6l-90.9-84.2l-5-4.6L109.5,148.9l47.1,49.7h-43.8v13.9h176.6v-13.9h-38.2L312.1,127.6L312.1,127.6z
	 M175.8,198.6l-47-49.6l87.9-90.9l76.1,70.5l-59.9,70H175.8L175.8,198.6z"/>
<path class="st0" d="M182.1,122.8c0-3.8,1.3-7,3.8-9.6s5.6-3.9,9.2-3.9s6.6,1.3,9.1,3.9c2.6,2.6,3.8,5.8,3.8,9.5s-1.2,6.9-3.8,9.5
	s-5.6,3.9-9.2,3.9s-6.7-1.3-9.2-3.9S182.1,126.6,182.1,122.8L182.1,122.8z M190.7,122.8c0,1.2,0.4,2.3,1.3,3.2s1.9,1.3,3.1,1.3
	s2.2-0.4,3.1-1.4s1.3-2,1.3-3.1s-0.4-2.3-1.3-3.2s-1.9-1.3-3.1-1.3s-2.2,0.4-3.1,1.3S190.7,121.6,190.7,122.8L190.7,122.8z
	 M201.4,166.9c-0.9,1.6-1.9,2.8-2.8,3.6s-2,1.2-3.1,1.2c-1.3,0-2.4-0.5-3.4-1.4s-1.4-2.1-1.4-3.5c0-0.2,0-0.5,0-0.9
	c0-0.3,0.1-0.8,0.3-1.3c0.2-0.8,0.5-1.5,0.9-2.2l27.9-48.8c1-1.7,1.9-2.9,2.9-3.7c0.9-0.7,2-1.1,3.1-1.1c1.3,0,2.5,0.4,3.4,1.3
	s1.4,2,1.4,3.4c0,0.6-0.1,1.2-0.4,2.1c-0.2,0.8-0.6,1.6-1.1,2.4L201.4,166.9L201.4,166.9z M213.6,157.6c0-3.8,1.3-7,3.8-9.6
	c2.5-2.6,5.6-3.9,9.2-3.9s6.6,1.3,9.1,3.9s3.8,5.8,3.8,9.6s-1.2,6.9-3.8,9.5s-5.6,3.9-9.2,3.9s-6.7-1.3-9.2-3.9
	S213.6,161.4,213.6,157.6L213.6,157.6z M222.3,157.6c0,1.2,0.4,2.3,1.3,3.1s1.9,1.3,3.1,1.3s2.2-0.4,3-1.3c0.9-0.9,1.3-1.9,1.3-3.1
	s-0.4-2.3-1.3-3.2c-0.8-0.9-1.9-1.3-3-1.3s-2.2,0.4-3.1,1.3S222.3,156.4,222.3,157.6L222.3,157.6z"/>
</svg>
