<?xml version="1.0" encoding="utf-8"?>
<!-- Generator: Adobe Illustrator 27.4.1, SVG Export Plug-In . SVG Version: 6.00 Build 0)  -->
<svg version="1.1" id="Layer_1" xmlns="http://www.w3.org/2000/svg" xmlns:xlink="http://www.w3.org/1999/xlink" x="0px" y="0px"
	 viewBox="0 0 400 400" style="enable-background:new 0 0 400 400;" xml:space="preserve">
<style type="text/css">
	.st0{fill:#606060;}
</style>
<polygon class="st0" points="368.4,243.4 331.1,162.5 302.4,162.5 302.4,176.4 322.2,176.4 353,243.4 47.6,243.4 78.2,176.4 
	108,176.4 108,162.5 69.3,162.5 32.3,243.4 29.1,243.4 29.1,361.3 43.1,361.3 43.1,257.3 356.9,257.3 356.9,361.3 370.9,361.3 
	370.9,243.4 "/>
<path class="st0" d="M312.1,127.6l-90.9-84.2l-5-4.6L109.5,148.9l47.1,49.7h-43.8v13.9h176.6v-13.9h-38.2L312.1,127.6L312.1,127.6z
	 M175.8,198.6l-47-49.6l87.9-90.9l76.1,70.5l-59.9,70H175.8L175.8,198.6z"/>
</svg>
