<?xml version="1.0" encoding="utf-8"?>
<!-- Generator: Adobe Illustrator 27.4.1, SVG Export Plug-In . SVG Version: 6.00 Build 0)  -->
<svg version="1.1" id="Layer_1" xmlns="http://www.w3.org/2000/svg" xmlns:xlink="http://www.w3.org/1999/xlink" x="0px" y="0px"
	 viewBox="0 0 400 400" style="enable-background:new 0 0 400 400;" xml:space="preserve">
<style type="text/css">
	.st0{fill:#606060;}
	.st1{fill:#FFFFFF;}
</style>
<path class="st0" d="M291.7,43.2H149.8c-3.2,0-5.6,2.7-5.6,5.7v106.4l-35,69.5c-2.4,4.6-4,8.9-4.8,13.5c-1.1,4.3-1.6,9.2-1.6,14
	l0.5,60.1c-0.1,0.5-0.5,0.8-0.5,1.3v37.2c0,3.2,2.4,5.9,5.7,5.9h94.8c3,0,5.7-2.7,5.7-5.9v-37.2c0-3.2-2.7-5.6-5.7-5.6h-10.8
	l34.5-84.8c1.9-4.6,1.9-9.2,0.3-13.5c-1.4-4-4.6-7.8-8.6-10l-1.6-0.8c-4.3-2.4-9.2-2.7-13.5-1.6c-4,1.1-7.8,3.5-10.5,7.3l-17.5,26.1
	h-19.9V54.6h130.6v176.1h-46.6c-3.2,0-5.7,2.7-5.7,5.6c0,3.2,2.4,5.9,5.7,5.9l52.2-0.3c3.2,0,5.6-2.4,5.6-5.7V48.9
	C297.4,46,294.9,43.2,291.7,43.2L291.7,43.2z M197.2,345.2h-83.2v-25.9h83.2L197.2,345.2L197.2,345.2z M167.6,242.3l-7,10.5
	c-1.6,2.7-0.8,6.2,1.6,8.1c2.7,1.6,6.2,0.8,8.1-1.6l32.1-48.2c1.1-1.4,2.4-2.4,4-2.7c1.6-0.5,3.5-0.3,5.1,0.5
	c0.3,0.3,1.6,0.8,1.6,1.1c1.6,0.8,3,2.1,3.5,3.8c0.5,1.6,0.5,3.5-0.3,5.1L179.9,308h-65.5l-0.5-55.8c0-4,0.5-7.8,1.3-11.6
	c0.8-3.5,2.2-7,4-10.8l24.8-49.2v55.6c0,3.2,2.4,5.9,5.6,5.9L167.6,242.3L167.6,242.3z"/>
<path class="st1" d="M270.7,112.7c-2.2-2.4-5.9-2.4-8.1,0l-47.9,47.9l-32.1-34.2c-2.1-2.2-5.7-2.4-8.1-0.3c-2.1,2.2-2.4,5.9-0.3,8.1
	l36.1,38.2c2.1,2.4,5.9,2.4,8.1,0.3l52.2-52C272.9,118.4,272.9,114.9,270.7,112.7z"/>
</svg>
