<?xml version="1.0" encoding="utf-8"?>
<!-- Generator: Adobe Illustrator 27.4.1, SVG Export Plug-In . SVG Version: 6.00 Build 0)  -->
<svg version="1.1" id="Layer_1" xmlns="http://www.w3.org/2000/svg" xmlns:xlink="http://www.w3.org/1999/xlink" x="0px" y="0px"
	 viewBox="0 0 400 400" style="enable-background:new 0 0 400 400;" xml:space="preserve">
<style type="text/css">
	.st0{fill:#FFFFFF;}
	.st1{fill:#606060;}
</style>
<path class="st0" d="M200,138.7c21.4,0,38.8-17.4,38.8-38.8S221.4,61.2,200,61.2s-38.8,17.4-38.8,38.8S178.6,138.7,200,138.7z
	 M200,72.7c15.1,0,27.3,12.2,27.3,27.3s-12.2,27.3-27.3,27.3S172.7,115,172.7,100S185,72.7,200,72.7L200,72.7z"/>
<path class="st0" d="M327.9,61.2c-21.4,0-38.8,17.4-38.8,38.8s17.4,38.8,38.8,38.8s38.8-17.4,38.8-38.8S349.3,61.2,327.9,61.2z
	 M327.9,127.2c-15.1,0-27.3-12.2-27.3-27.3s12.2-27.3,27.3-27.3s27.3,12.2,27.3,27.3S342.9,127.2,327.9,127.2z"/>
<path class="st0" d="M110.9,99.9c0-21.4-17.4-38.8-38.8-38.8S33.3,78.6,33.3,99.9s17.4,38.8,38.8,38.8S110.9,121.3,110.9,99.9z
	 M44.8,99.9c0-15.1,12.2-27.3,27.3-27.3s27.3,12.2,27.3,27.3s-12.2,27.3-27.3,27.3S44.8,115,44.8,99.9z"/>
<path class="st1" d="M330,225.6l-35.2-17.8c11.7-6.7,19.7-19.1,19.7-33.6c0-21.4-17.4-38.8-38.8-38.8S237,152.8,237,174.2
	c0,14.4,8,26.9,19.7,33.6l-19.7,10c-7.2-13.1-21-22.1-37-22.1s-29.8,9-37,22.1l-19.8-10c11.7-6.7,19.8-19.1,19.8-33.6
	c0-21.4-17.4-38.8-38.8-38.8s-38.8,17.4-38.8,38.8c0,14.4,8,26.9,19.7,33.6L70,225.5c-1.9,1-3.2,3-3.2,5.1v29c0,3.2,2.6,5.7,5.7,5.7
	s5.7-2.6,5.7-5.7v-25.5l38.6-19.5c4.6-2.3,10.1-2.3,14.6,0l27.2,13.8c-0.7,3.1-1.2,6.3-1.2,9.7c0,16.2,9.2,30.2,22.7,37.3
	l-40.2,20.3c-1.9,1-3.1,3-3.1,5.1v32.2c0,3.2,2.6,5.7,5.7,5.7s5.7-2.6,5.7-5.7v-28.7l43.2-21.8c5.2-2.7,11.5-2.7,16.8,0l43.2,21.8
	v28.7c0,3.2,2.6,5.7,5.7,5.7s5.7-2.6,5.7-5.7v-32.2c0-2.2-1.2-4.1-3.1-5.1l-40.2-20.3c13.4-7.1,22.7-21.1,22.7-37.3
	c0-3.3-0.5-6.6-1.2-9.7l27.2-13.7c4.6-2.3,10-2.3,14.6,0l38.6,19.5v25.5c0,3.2,2.6,5.7,5.7,5.7s5.7-2.6,5.7-5.7v-29
	C333.1,228.5,331.9,226.5,330,225.6L330,225.6z M96.9,174.2c0-15.1,12.2-27.3,27.3-27.3s27.3,12.2,27.3,27.3s-12.2,27.3-27.3,27.3
	S96.9,189.3,96.9,174.2z M200,269.1c-17.1,0-31-13.9-31-31s13.9-31,31-31s31,13.9,31,31S217.1,269.1,200,269.1z M248.5,174.2
	c0-15.1,12.2-27.3,27.3-27.3s27.3,12.2,27.3,27.3s-12.2,27.3-27.3,27.3S248.5,189.3,248.5,174.2L248.5,174.2z"/>
</svg>
