<?xml version="1.0" encoding="utf-8"?>
<!-- Generator: Adobe Illustrator 27.4.1, SVG Export Plug-In . SVG Version: 6.00 Build 0)  -->
<svg version="1.1" id="Layer_1" xmlns="http://www.w3.org/2000/svg" xmlns:xlink="http://www.w3.org/1999/xlink" x="0px" y="0px"
	 viewBox="0 0 400 400" style="enable-background:new 0 0 400 400;" xml:space="preserve">
<style type="text/css">
	.st0{fill:#606060;}
</style>
<path class="st0" d="M357.4,345.5H262l62.7-109c2.1-3.6,1.1-8.2-2.8-10.3l-68.5-39.4l0.3-43.6c0-6.4-1.8-12.1-4.6-17
	c-2.8-5-7.1-9.2-12.8-12.4l-82.5-46.6c-0.6-0.9-1.5-1.8-2.6-2.4l-41.9-24.1l-0.4-0.3c-3.6-2.1-8.2-0.7-10.3,2.8L36.2,151
	c-2.1,3.6-0.7,8.2,2.8,10.3l42.6,24.5c3.6,2.1,8.2,0.7,10.3-2.8l6.9-12l74,95.4c3.9,5,9.2,7.8,14.9,8.9c5.7,1.1,11.7,0,17-3.2
	l2.5-1.4c5.3-3.2,8.9-8.5,10.6-14.2c1.4-5.7,1.1-11.7-1.8-17.4L198,202.5l13.2-22.7l96.9,55.7l-63.5,110h-87.3
	c-0.2-0.1-0.3-0.2-0.5-0.4L126,327.4l28-48.6l-12.8-7.5l-31.9,55c-2.1,3.5-1.1,8.2,2.5,10.3l15.4,8.9H42.6c-3.9,0-7.5,3.5-7.5,7.8
	c0,3.9,3.5,7.5,7.5,7.5h314.8c4.3,0,7.5-3.5,7.5-7.5C364.9,349,361.7,345.5,357.4,345.5L357.4,345.5z M82.7,169.1l-29.8-17l55-95.1
	l29.5,17L117,109.4l-25.4,43.8c-0.3,0.5-0.5,1.1-0.6,1.6L82.7,169.1L82.7,169.1z M201.9,165.5L190,186.5l-7.6-15.3
	c-1.8-3.9-6-5.3-9.9-3.6c-3.6,1.8-5.3,6.4-3.2,9.9l33.4,68.1c1.1,2.1,1.4,4.6,0.7,6.7c-0.7,2.1-2.1,4.3-3.9,5.3l-2.5,1.4
	c-2.1,1.4-4.3,1.8-6.4,1.4c-2.5-0.4-4.3-1.8-6-3.5l-77.6-100.3l23-39.9l20.2-34.8l79.2,44.7c2.8,1.4,5.3,3.9,6.7,6.7
	c1.8,2.8,2.5,6,2.5,9.6v35L212.2,163C208.7,160.9,204.1,162,201.9,165.5L201.9,165.5z"/>
</svg>
